<?xml version="1.0" encoding="utf-8"?>
<svg xmlns="http://www.w3.org/2000/svg" xmlns:xlink="http://www.w3.org/1999/xlink" width="600" height="400" viewBox="0 0 2400 1600">
<defs>
  <clipPath id="clip810">
    <rect x="0" y="0" width="2400" height="1600"/>
  </clipPath>
</defs>
<path clip-path="url(#clip810)" d="
M0 1600 L2400 1600 L2400 0 L0 0  Z
  " fill="#ffffff" fill-rule="evenodd" fill-opacity="1"/>
<defs>
  <clipPath id="clip811">
    <rect x="480" y="0" width="1681" height="1600"/>
  </clipPath>
</defs>
<defs>
  <clipPath id="clip812">
    <rect x="267" y="47" width="2086" height="1347"/>
  </clipPath>
</defs>
<path clip-path="url(#clip810)" d="
M267.629 1392.94 L2352.76 1392.94 L2352.76 47.2441 L267.629 47.2441  Z
  " fill="#ffffff" fill-rule="evenodd" fill-opacity="1"/>
<polyline clip-path="url(#clip812)" style="stroke:#000000; stroke-linecap:round; stroke-linejoin:round; stroke-width:2; stroke-opacity:0.1; fill:none" points="
  267.629,1392.94 267.629,47.2441
  "/>
<polyline clip-path="url(#clip812)" style="stroke:#000000; stroke-linecap:round; stroke-linejoin:round; stroke-width:2; stroke-opacity:0.1; fill:none" points="
  788.911,1392.94 788.911,47.2441
  "/>
<polyline clip-path="url(#clip812)" style="stroke:#000000; stroke-linecap:round; stroke-linejoin:round; stroke-width:2; stroke-opacity:0.1; fill:none" points="
  1310.19,1392.94 1310.19,47.2441
  "/>
<polyline clip-path="url(#clip812)" style="stroke:#000000; stroke-linecap:round; stroke-linejoin:round; stroke-width:2; stroke-opacity:0.1; fill:none" points="
  1831.47,1392.94 1831.47,47.2441
  "/>
<polyline clip-path="url(#clip812)" style="stroke:#000000; stroke-linecap:round; stroke-linejoin:round; stroke-width:2; stroke-opacity:0.1; fill:none" points="
  2352.76,1392.94 2352.76,47.2441
  "/>
<polyline clip-path="url(#clip810)" style="stroke:#000000; stroke-linecap:round; stroke-linejoin:round; stroke-width:4; stroke-opacity:1; fill:none" points="
  267.629,1392.94 2352.76,1392.94
  "/>
<polyline clip-path="url(#clip810)" style="stroke:#000000; stroke-linecap:round; stroke-linejoin:round; stroke-width:4; stroke-opacity:1; fill:none" points="
  267.629,1392.94 267.629,1374.04
  "/>
<polyline clip-path="url(#clip810)" style="stroke:#000000; stroke-linecap:round; stroke-linejoin:round; stroke-width:4; stroke-opacity:1; fill:none" points="
  788.911,1392.94 788.911,1374.04
  "/>
<polyline clip-path="url(#clip810)" style="stroke:#000000; stroke-linecap:round; stroke-linejoin:round; stroke-width:4; stroke-opacity:1; fill:none" points="
  1310.19,1392.94 1310.19,1374.04
  "/>
<polyline clip-path="url(#clip810)" style="stroke:#000000; stroke-linecap:round; stroke-linejoin:round; stroke-width:4; stroke-opacity:1; fill:none" points="
  1831.47,1392.94 1831.47,1374.04
  "/>
<polyline clip-path="url(#clip810)" style="stroke:#000000; stroke-linecap:round; stroke-linejoin:round; stroke-width:4; stroke-opacity:1; fill:none" points="
  2352.76,1392.94 2352.76,1374.04
  "/>
<path clip-path="url(#clip810)" d="M198.723 1451.7 L243.237 1451.7 L243.237 1457.6 L198.723 1457.6 L198.723 1451.7 Z" fill="#000000" fill-rule="evenodd" fill-opacity="1" /><path clip-path="url(#clip810)" d="M259.591 1471.04 L271.049 1471.04 L271.049 1431.49 L258.584 1433.99 L258.584 1427.6 L270.98 1425.1 L277.994 1425.1 L277.994 1471.04 L289.452 1471.04 L289.452 1476.94 L259.591 1476.94 L259.591 1471.04 Z" fill="#000000" fill-rule="evenodd" fill-opacity="1" /><path clip-path="url(#clip810)" d="M318.619 1429.72 Q313.202 1429.72 310.459 1435.07 Q307.751 1440.38 307.751 1451.07 Q307.751 1461.73 310.459 1467.08 Q313.202 1472.39 318.619 1472.39 Q324.07 1472.39 326.778 1467.08 Q329.521 1461.73 329.521 1451.07 Q329.521 1440.38 326.778 1435.07 Q324.07 1429.72 318.619 1429.72 M318.619 1424.16 Q327.334 1424.16 331.917 1431.07 Q336.535 1437.95 336.535 1451.07 Q336.535 1464.16 331.917 1471.07 Q327.334 1477.95 318.619 1477.95 Q309.903 1477.95 305.285 1471.07 Q300.702 1464.16 300.702 1451.07 Q300.702 1437.95 305.285 1431.07 Q309.903 1424.16 318.619 1424.16 Z" fill="#000000" fill-rule="evenodd" fill-opacity="1" /><path clip-path="url(#clip810)" d="M743.373 1451.7 L787.887 1451.7 L787.887 1457.6 L743.373 1457.6 L743.373 1451.7 Z" fill="#000000" fill-rule="evenodd" fill-opacity="1" /><path clip-path="url(#clip810)" d="M803.095 1425.1 L830.629 1425.1 L830.629 1431 L809.518 1431 L809.518 1443.71 Q811.046 1443.19 812.574 1442.95 Q814.102 1442.67 815.63 1442.67 Q824.31 1442.67 829.379 1447.43 Q834.449 1452.18 834.449 1460.31 Q834.449 1468.68 829.241 1473.33 Q824.032 1477.95 814.553 1477.95 Q811.289 1477.95 807.887 1477.39 Q804.519 1476.84 800.907 1475.72 L800.907 1468.68 Q804.032 1470.38 807.366 1471.21 Q810.699 1472.04 814.414 1472.04 Q820.421 1472.04 823.928 1468.88 Q827.435 1465.72 827.435 1460.31 Q827.435 1454.89 823.928 1451.73 Q820.421 1448.57 814.414 1448.57 Q811.602 1448.57 808.789 1449.2 Q806.012 1449.82 803.095 1451.14 L803.095 1425.1 Z" fill="#000000" fill-rule="evenodd" fill-opacity="1" /><path clip-path="url(#clip810)" d="M1310.19 1429.72 Q1304.78 1429.72 1302.03 1435.07 Q1299.32 1440.38 1299.32 1451.07 Q1299.32 1461.73 1302.03 1467.08 Q1304.78 1472.39 1310.19 1472.39 Q1315.64 1472.39 1318.35 1467.08 Q1321.1 1461.73 1321.1 1451.07 Q1321.1 1440.38 1318.35 1435.07 Q1315.64 1429.72 1310.19 1429.72 M1310.19 1424.16 Q1318.91 1424.16 1323.49 1431.07 Q1328.11 1437.95 1328.11 1451.07 Q1328.11 1464.16 1323.49 1471.07 Q1318.91 1477.95 1310.19 1477.95 Q1301.48 1477.95 1296.86 1471.07 Q1292.28 1464.16 1292.28 1451.07 Q1292.28 1437.95 1296.86 1431.07 Q1301.48 1424.16 1310.19 1424.16 Z" fill="#000000" fill-rule="evenodd" fill-opacity="1" /><path clip-path="url(#clip810)" d="M1816.89 1425.1 L1844.43 1425.1 L1844.43 1431 L1823.31 1431 L1823.31 1443.71 Q1824.84 1443.19 1826.37 1442.95 Q1827.9 1442.67 1829.43 1442.67 Q1838.11 1442.67 1843.18 1447.43 Q1848.25 1452.18 1848.25 1460.31 Q1848.25 1468.68 1843.04 1473.33 Q1837.83 1477.95 1828.35 1477.95 Q1825.09 1477.95 1821.68 1477.39 Q1818.31 1476.84 1814.7 1475.72 L1814.7 1468.68 Q1817.83 1470.38 1821.16 1471.21 Q1824.5 1472.04 1828.21 1472.04 Q1834.22 1472.04 1837.72 1468.88 Q1841.23 1465.72 1841.23 1460.31 Q1841.23 1454.89 1837.72 1451.73 Q1834.22 1448.57 1828.21 1448.57 Q1825.4 1448.57 1822.59 1449.2 Q1819.81 1449.82 1816.89 1451.14 L1816.89 1425.1 Z" fill="#000000" fill-rule="evenodd" fill-opacity="1" /><path clip-path="url(#clip810)" d="M2314.79 1471.04 L2326.25 1471.04 L2326.25 1431.49 L2313.78 1433.99 L2313.78 1427.6 L2326.18 1425.1 L2333.19 1425.1 L2333.19 1471.04 L2344.65 1471.04 L2344.65 1476.94 L2314.79 1476.94 L2314.79 1471.04 Z" fill="#000000" fill-rule="evenodd" fill-opacity="1" /><path clip-path="url(#clip810)" d="M2373.81 1429.72 Q2368.4 1429.72 2365.66 1435.07 Q2362.95 1440.38 2362.95 1451.07 Q2362.95 1461.73 2365.66 1467.08 Q2368.4 1472.39 2373.81 1472.39 Q2379.27 1472.39 2381.97 1467.08 Q2384.72 1461.73 2384.72 1451.07 Q2384.72 1440.38 2381.97 1435.07 Q2379.27 1429.72 2373.81 1429.72 M2373.81 1424.16 Q2382.53 1424.16 2387.11 1431.07 Q2391.73 1437.95 2391.73 1451.07 Q2391.73 1464.16 2387.11 1471.07 Q2382.53 1477.95 2373.81 1477.95 Q2365.1 1477.95 2360.48 1471.07 Q2355.9 1464.16 2355.9 1451.07 Q2355.9 1437.95 2360.48 1431.07 Q2365.1 1424.16 2373.81 1424.16 Z" fill="#000000" fill-rule="evenodd" fill-opacity="1" /><path clip-path="url(#clip810)" d="M1325.38 1529.86 Q1325.38 1536.74 1323.17 1544.49 Q1321 1552.2 1317.55 1558.43 Q1314.11 1564.62 1309.6 1568.72 Q1305.09 1572.77 1300.79 1572.77 Q1298.04 1572.77 1295.99 1571.26 Q1293.99 1569.7 1292.88 1567.12 Q1291.77 1564.49 1291.24 1561.63 Q1290.71 1558.72 1290.71 1555.56 Q1290.71 1550.85 1291.73 1545.72 Q1292.76 1540.56 1294.48 1535.88 Q1296.2 1531.17 1298.62 1526.91 Q1301.04 1522.6 1303.7 1519.49 Q1306.41 1516.33 1309.44 1514.49 Q1312.47 1512.64 1315.3 1512.64 Q1317.35 1512.64 1318.99 1513.54 Q1320.67 1514.41 1321.74 1515.92 Q1322.8 1517.4 1323.54 1519.16 Q1324.32 1520.92 1324.69 1522.97 Q1325.06 1524.98 1325.22 1526.66 Q1325.38 1528.3 1325.38 1529.86 M1319.85 1524.65 Q1319.85 1522.56 1319.69 1521 Q1319.52 1519.41 1319.07 1517.81 Q1318.62 1516.21 1317.64 1515.35 Q1316.69 1514.49 1315.22 1514.49 Q1310.91 1514.49 1306.08 1523.3 Q1304.52 1526.05 1303.13 1529.78 Q1301.73 1533.51 1301.24 1535.27 Q1300.75 1537.03 1299.6 1541.38 L1317.14 1541.38 Q1319.85 1530.19 1319.85 1524.65 M1316.41 1544.04 L1298.95 1544.04 Q1296.24 1554.29 1296.24 1560.68 Q1296.24 1566.26 1297.39 1568.59 Q1298.58 1570.89 1300.79 1570.89 Q1303.33 1570.89 1305.71 1568.35 Q1308.09 1565.77 1310.5 1561.09 Q1313.7 1555.03 1316.41 1544.04 Z" fill="#000000" fill-rule="evenodd" fill-opacity="1" /><polyline clip-path="url(#clip812)" style="stroke:#000000; stroke-linecap:round; stroke-linejoin:round; stroke-width:2; stroke-opacity:0.1; fill:none" points="
  267.629,1354.9 2352.76,1354.9
  "/>
<polyline clip-path="url(#clip812)" style="stroke:#000000; stroke-linecap:round; stroke-linejoin:round; stroke-width:2; stroke-opacity:0.1; fill:none" points="
  267.629,1036.62 2352.76,1036.62
  "/>
<polyline clip-path="url(#clip812)" style="stroke:#000000; stroke-linecap:round; stroke-linejoin:round; stroke-width:2; stroke-opacity:0.1; fill:none" points="
  267.629,718.347 2352.76,718.347
  "/>
<polyline clip-path="url(#clip812)" style="stroke:#000000; stroke-linecap:round; stroke-linejoin:round; stroke-width:2; stroke-opacity:0.1; fill:none" points="
  267.629,400.072 2352.76,400.072
  "/>
<polyline clip-path="url(#clip812)" style="stroke:#000000; stroke-linecap:round; stroke-linejoin:round; stroke-width:2; stroke-opacity:0.1; fill:none" points="
  267.629,81.7975 2352.76,81.7975
  "/>
<polyline clip-path="url(#clip810)" style="stroke:#000000; stroke-linecap:round; stroke-linejoin:round; stroke-width:4; stroke-opacity:1; fill:none" points="
  267.629,1392.94 267.629,47.2441
  "/>
<polyline clip-path="url(#clip810)" style="stroke:#000000; stroke-linecap:round; stroke-linejoin:round; stroke-width:4; stroke-opacity:1; fill:none" points="
  267.629,1354.9 286.527,1354.9
  "/>
<polyline clip-path="url(#clip810)" style="stroke:#000000; stroke-linecap:round; stroke-linejoin:round; stroke-width:4; stroke-opacity:1; fill:none" points="
  267.629,1036.62 286.527,1036.62
  "/>
<polyline clip-path="url(#clip810)" style="stroke:#000000; stroke-linecap:round; stroke-linejoin:round; stroke-width:4; stroke-opacity:1; fill:none" points="
  267.629,718.347 286.527,718.347
  "/>
<polyline clip-path="url(#clip810)" style="stroke:#000000; stroke-linecap:round; stroke-linejoin:round; stroke-width:4; stroke-opacity:1; fill:none" points="
  267.629,400.072 286.527,400.072
  "/>
<polyline clip-path="url(#clip810)" style="stroke:#000000; stroke-linecap:round; stroke-linejoin:round; stroke-width:4; stroke-opacity:1; fill:none" points="
  267.629,81.7975 286.527,81.7975
  "/>
<path clip-path="url(#clip810)" d="M145.866 1333.59 Q140.449 1333.59 137.706 1338.94 Q134.998 1344.25 134.998 1354.95 Q134.998 1365.61 137.706 1370.96 Q140.449 1376.27 145.866 1376.27 Q151.317 1376.27 154.026 1370.96 Q156.769 1365.61 156.769 1354.95 Q156.769 1344.25 154.026 1338.94 Q151.317 1333.59 145.866 1333.59 M145.866 1328.04 Q154.581 1328.04 159.164 1334.95 Q163.782 1341.82 163.782 1354.95 Q163.782 1368.04 159.164 1374.95 Q154.581 1381.82 145.866 1381.82 Q137.151 1381.82 132.533 1374.95 Q127.949 1368.04 127.949 1354.95 Q127.949 1341.82 132.533 1334.95 Q137.151 1328.04 145.866 1328.04 Z" fill="#000000" fill-rule="evenodd" fill-opacity="1" /><path clip-path="url(#clip810)" d="M176.109 1372 L183.435 1372 L183.435 1380.82 L176.109 1380.82 L176.109 1372 Z" fill="#000000" fill-rule="evenodd" fill-opacity="1" /><path clip-path="url(#clip810)" d="M213.713 1333.59 Q208.296 1333.59 205.553 1338.94 Q202.845 1344.25 202.845 1354.95 Q202.845 1365.61 205.553 1370.96 Q208.296 1376.27 213.713 1376.27 Q219.164 1376.27 221.872 1370.96 Q224.615 1365.61 224.615 1354.95 Q224.615 1344.25 221.872 1338.94 Q219.164 1333.59 213.713 1333.59 M213.713 1328.04 Q222.428 1328.04 227.011 1334.95 Q231.629 1341.82 231.629 1354.95 Q231.629 1368.04 227.011 1374.95 Q222.428 1381.82 213.713 1381.82 Q204.998 1381.82 200.379 1374.95 Q195.796 1368.04 195.796 1354.95 Q195.796 1341.82 200.379 1334.95 Q204.998 1328.04 213.713 1328.04 Z" fill="#000000" fill-rule="evenodd" fill-opacity="1" /><path clip-path="url(#clip810)" d="M147.706 1015.32 Q142.29 1015.32 139.546 1020.67 Q136.838 1025.98 136.838 1036.67 Q136.838 1047.33 139.546 1052.68 Q142.29 1057.99 147.706 1057.99 Q153.158 1057.99 155.866 1052.68 Q158.609 1047.33 158.609 1036.67 Q158.609 1025.98 155.866 1020.67 Q153.158 1015.32 147.706 1015.32 M147.706 1009.76 Q156.421 1009.76 161.005 1016.67 Q165.623 1023.55 165.623 1036.67 Q165.623 1049.76 161.005 1056.67 Q156.421 1063.55 147.706 1063.55 Q138.991 1063.55 134.373 1056.67 Q129.79 1049.76 129.79 1036.67 Q129.79 1023.55 134.373 1016.67 Q138.991 1009.76 147.706 1009.76 Z" fill="#000000" fill-rule="evenodd" fill-opacity="1" /><path clip-path="url(#clip810)" d="M177.949 1053.72 L185.275 1053.72 L185.275 1062.54 L177.949 1062.54 L177.949 1053.72 Z" fill="#000000" fill-rule="evenodd" fill-opacity="1" /><path clip-path="url(#clip810)" d="M201.768 1056.64 L213.227 1056.64 L213.227 1017.09 L200.761 1019.59 L200.761 1013.2 L213.157 1010.7 L220.171 1010.7 L220.171 1056.64 L231.629 1056.64 L231.629 1062.54 L201.768 1062.54 L201.768 1056.64 Z" fill="#000000" fill-rule="evenodd" fill-opacity="1" /><path clip-path="url(#clip810)" d="M148.262 697.045 Q142.845 697.045 140.102 702.392 Q137.394 707.705 137.394 718.399 Q137.394 729.059 140.102 734.406 Q142.845 739.719 148.262 739.719 Q153.713 739.719 156.421 734.406 Q159.164 729.059 159.164 718.399 Q159.164 707.705 156.421 702.392 Q153.713 697.045 148.262 697.045 M148.262 691.49 Q156.977 691.49 161.56 698.399 Q166.178 705.274 166.178 718.399 Q166.178 731.49 161.56 738.399 Q156.977 745.274 148.262 745.274 Q139.546 745.274 134.928 738.399 Q130.345 731.49 130.345 718.399 Q130.345 705.274 134.928 698.399 Q139.546 691.49 148.262 691.49 Z" fill="#000000" fill-rule="evenodd" fill-opacity="1" /><path clip-path="url(#clip810)" d="M178.505 735.448 L185.831 735.448 L185.831 744.267 L178.505 744.267 L178.505 735.448 Z" fill="#000000" fill-rule="evenodd" fill-opacity="1" /><path clip-path="url(#clip810)" d="M207.15 738.364 L231.629 738.364 L231.629 744.267 L198.713 744.267 L198.713 738.364 Q202.706 734.233 209.581 727.288 Q216.491 720.309 218.261 718.295 Q221.629 714.51 222.949 711.906 Q224.303 709.267 224.303 706.733 Q224.303 702.601 221.386 699.997 Q218.504 697.392 213.852 697.392 Q210.553 697.392 206.873 698.538 Q203.227 699.684 199.06 702.01 L199.06 694.927 Q203.296 693.226 206.977 692.358 Q210.657 691.49 213.713 691.49 Q221.768 691.49 226.56 695.517 Q231.352 699.545 231.352 706.281 Q231.352 709.476 230.136 712.358 Q228.956 715.205 225.796 719.094 Q224.928 720.101 220.275 724.927 Q215.622 729.719 207.15 738.364 Z" fill="#000000" fill-rule="evenodd" fill-opacity="1" /><path clip-path="url(#clip810)" d="M146.838 378.77 Q141.421 378.77 138.678 384.118 Q135.97 389.43 135.97 400.124 Q135.97 410.784 138.678 416.131 Q141.421 421.444 146.838 421.444 Q152.289 421.444 154.998 416.131 Q157.741 410.784 157.741 400.124 Q157.741 389.43 154.998 384.118 Q152.289 378.77 146.838 378.77 M146.838 373.215 Q155.553 373.215 160.137 380.125 Q164.755 387 164.755 400.124 Q164.755 413.215 160.137 420.124 Q155.553 426.999 146.838 426.999 Q138.123 426.999 133.505 420.124 Q128.922 413.215 128.922 400.124 Q128.922 387 133.505 380.125 Q138.123 373.215 146.838 373.215 Z" fill="#000000" fill-rule="evenodd" fill-opacity="1" /><path clip-path="url(#clip810)" d="M177.081 417.173 L184.407 417.173 L184.407 425.992 L177.081 425.992 L177.081 417.173 Z" fill="#000000" fill-rule="evenodd" fill-opacity="1" /><path clip-path="url(#clip810)" d="M220.935 398.041 Q225.97 399.118 228.782 402.52 Q231.629 405.923 231.629 410.923 Q231.629 418.597 226.352 422.798 Q221.074 426.999 211.352 426.999 Q208.088 426.999 204.616 426.34 Q201.178 425.715 197.498 424.43 L197.498 417.659 Q200.414 419.36 203.886 420.229 Q207.359 421.097 211.143 421.097 Q217.741 421.097 221.178 418.492 Q224.65 415.888 224.65 410.923 Q224.65 406.34 221.421 403.77 Q218.227 401.166 212.497 401.166 L206.456 401.166 L206.456 395.402 L212.775 395.402 Q217.949 395.402 220.692 393.354 Q223.435 391.27 223.435 387.381 Q223.435 383.388 220.588 381.27 Q217.775 379.118 212.497 379.118 Q209.616 379.118 206.317 379.743 Q203.018 380.368 199.06 381.687 L199.06 375.437 Q203.053 374.326 206.525 373.77 Q210.032 373.215 213.122 373.215 Q221.109 373.215 225.761 376.861 Q230.414 380.472 230.414 386.652 Q230.414 390.958 227.949 393.944 Q225.484 396.895 220.935 398.041 Z" fill="#000000" fill-rule="evenodd" fill-opacity="1" /><path clip-path="url(#clip810)" d="M145.137 60.4955 Q139.72 60.4955 136.977 65.8427 Q134.269 71.1552 134.269 81.8496 Q134.269 92.5093 136.977 97.8565 Q139.72 103.169 145.137 103.169 Q150.588 103.169 153.296 97.8565 Q156.039 92.5093 156.039 81.8496 Q156.039 71.1552 153.296 65.8427 Q150.588 60.4955 145.137 60.4955 M145.137 54.94 Q153.852 54.94 158.435 61.8497 Q163.053 68.7247 163.053 81.8496 Q163.053 94.9398 158.435 101.849 Q153.852 108.724 145.137 108.724 Q136.421 108.724 131.803 101.849 Q127.22 94.9398 127.22 81.8496 Q127.22 68.7247 131.803 61.8497 Q136.421 54.94 145.137 54.94 Z" fill="#000000" fill-rule="evenodd" fill-opacity="1" /><path clip-path="url(#clip810)" d="M175.38 98.8981 L182.706 98.8981 L182.706 107.718 L175.38 107.718 L175.38 98.8981 Z" fill="#000000" fill-rule="evenodd" fill-opacity="1" /><path clip-path="url(#clip810)" d="M217.254 61.9886 L199.546 89.6621 L217.254 89.6621 L217.254 61.9886 M215.414 55.8775 L224.234 55.8775 L224.234 89.6621 L231.629 89.6621 L231.629 95.4954 L224.234 95.4954 L224.234 107.718 L217.254 107.718 L217.254 95.4954 L193.852 95.4954 L193.852 88.7246 L215.414 55.8775 Z" fill="#000000" fill-rule="evenodd" fill-opacity="1" /><path clip-path="url(#clip810)" d="M19.3207 864.304 L66.3517 864.304 L66.3517 854.42 Q66.3517 841.903 60.6804 836.11 Q55.0091 830.277 42.7754 830.277 Q30.6227 830.277 24.9919 836.11 Q19.3207 841.903 19.3207 854.42 L19.3207 864.304 M12.5962 872.487 L12.5962 855.676 Q12.5962 838.095 19.9283 829.871 Q27.2199 821.648 42.7754 821.648 Q58.4119 821.648 65.744 829.912 Q73.0762 838.176 73.0762 855.676 L73.0762 872.487 L12.5962 872.487 Z" fill="#000000" fill-rule="evenodd" fill-opacity="1" /><path clip-path="url(#clip810)" d="M48.5277 770.121 L52.1735 770.121 L52.1735 804.391 Q59.8702 803.905 63.9211 799.773 Q67.9315 795.601 67.9315 788.188 Q67.9315 783.894 66.8783 779.883 Q65.825 775.832 63.7186 771.863 L70.7671 771.863 Q72.4685 775.873 73.3597 780.086 Q74.2509 784.299 74.2509 788.633 Q74.2509 799.49 67.9315 805.85 Q61.6121 812.169 50.8367 812.169 Q39.6967 812.169 33.1748 806.174 Q26.6123 800.138 26.6123 789.93 Q26.6123 780.775 32.5266 775.468 Q38.4004 770.121 48.5277 770.121 M46.3402 777.574 Q40.2233 777.655 36.5775 781.018 Q32.9317 784.339 32.9317 789.849 Q32.9317 796.087 36.456 799.854 Q39.9803 803.581 46.3807 804.148 L46.3402 777.574 Z" fill="#000000" fill-rule="evenodd" fill-opacity="1" /><path clip-path="url(#clip810)" d="M45.692 720.173 L73.0762 720.173 L73.0762 727.627 L45.9351 727.627 Q39.4942 727.627 36.2939 730.138 Q33.0937 732.65 33.0937 737.673 Q33.0937 743.709 36.9421 747.193 Q40.7905 750.676 47.4339 750.676 L73.0762 750.676 L73.0762 758.17 L27.706 758.17 L27.706 750.676 L34.7546 750.676 Q30.6632 748.003 28.6377 744.397 Q26.6123 740.752 26.6123 736.012 Q26.6123 728.194 31.4734 724.183 Q36.2939 720.173 45.692 720.173 Z" fill="#000000" fill-rule="evenodd" fill-opacity="1" /><path clip-path="url(#clip810)" d="M29.0428 676.383 L36.0914 676.383 Q34.471 679.542 33.6609 682.945 Q32.8507 686.348 32.8507 689.994 Q32.8507 695.543 34.5521 698.339 Q36.2534 701.093 39.6562 701.093 Q42.2488 701.093 43.7476 699.108 Q45.2059 697.123 46.5427 691.128 L47.1099 688.576 Q48.8112 680.636 51.9304 677.314 Q55.0091 673.952 60.5589 673.952 Q66.8783 673.952 70.5646 678.975 Q74.2509 683.958 74.2509 692.708 Q74.2509 696.354 73.5218 700.324 Q72.8331 704.253 71.4153 708.628 L63.7186 708.628 Q65.8655 704.496 66.9593 700.486 Q68.0125 696.475 68.0125 692.546 Q68.0125 687.28 66.2301 684.444 Q64.4072 681.608 61.126 681.608 Q58.0878 681.608 56.4675 683.674 Q54.8471 685.7 53.3483 692.627 L52.7406 695.219 Q51.2823 702.146 48.2846 705.225 Q45.2464 708.304 39.9803 708.304 Q33.5798 708.304 30.0961 703.767 Q26.6123 699.23 26.6123 690.885 Q26.6123 686.753 27.2199 683.107 Q27.8276 679.461 29.0428 676.383 Z" fill="#000000" fill-rule="evenodd" fill-opacity="1" /><path clip-path="url(#clip810)" d="M27.706 662.083 L27.706 654.629 L73.0762 654.629 L73.0762 662.083 L27.706 662.083 M10.0441 662.083 L10.0441 654.629 L19.4827 654.629 L19.4827 662.083 L10.0441 662.083 Z" fill="#000000" fill-rule="evenodd" fill-opacity="1" /><path clip-path="url(#clip810)" d="M14.8242 631.661 L27.706 631.661 L27.706 616.308 L33.4988 616.308 L33.4988 631.661 L58.1283 631.661 Q63.6781 631.661 65.2579 630.162 Q66.8378 628.623 66.8378 623.964 L66.8378 616.308 L73.0762 616.308 L73.0762 623.964 Q73.0762 632.592 69.8759 635.874 Q66.6352 639.155 58.1283 639.155 L33.4988 639.155 L33.4988 644.624 L27.706 644.624 L27.706 639.155 L14.8242 639.155 L14.8242 631.661 Z" fill="#000000" fill-rule="evenodd" fill-opacity="1" /><path clip-path="url(#clip810)" d="M77.2891 587.627 Q85.3909 590.787 87.862 593.785 Q90.333 596.782 90.333 601.806 L90.333 607.76 L84.0946 607.76 L84.0946 603.385 Q84.0946 600.307 82.6363 598.605 Q81.178 596.904 75.7498 594.838 L72.347 593.501 L27.706 611.852 L27.706 603.953 L63.192 589.774 L27.706 575.596 L27.706 567.697 L77.2891 587.627 Z" fill="#000000" fill-rule="evenodd" fill-opacity="1" /><polyline clip-path="url(#clip812)" style="stroke:#009af9; stroke-linecap:round; stroke-linejoin:round; stroke-width:8; stroke-opacity:1; fill:none" points="
  922.462,1353.64 924.986,1353.52 927.51,1353.39 950.851,1351.55 974.193,1347.85 988.22,1344.12 1002.25,1338.71 1014.11,1332.39 1025.97,1324.01 1032.41,1318.41
  1038.85,1311.96 1045.29,1304.57 1051.73,1296.13 1057.67,1287.32 1063.61,1277.45 1069.55,1266.43 1075.49,1254.16 1081.85,1239.53 1088.22,1223.27 1094.59,1205.27
  1100.95,1185.44 1108.33,1160.08 1115.71,1132.03 1123.08,1101.22 1130.46,1067.59 1137.01,1035.33 1143.57,1000.85 1150.12,964.198 1156.68,925.451 1162.43,889.838
  1168.18,852.801 1173.92,814.46 1179.67,774.957 1192.21,685.61 1204.74,593.584 1217.35,500.787 1229.96,410.594 1233.45,386.527 1236.93,362.955 1240.42,339.945
  1243.9,317.561 1247.39,295.867 1250.87,274.927 1254.36,254.803 1257.84,235.556 1261.16,218.11 1264.47,201.56 1267.79,185.952 1271.11,171.331 1274.42,157.739
  1277.74,145.215 1281.06,133.796 1284.37,123.516 1287.82,114.067 1291.27,105.912 1294.72,99.0785 1298.16,93.5876 1301.61,89.4577 1305.06,86.7021 1308.51,85.3298
  1311.96,85.3455 1314.86,86.4346 1317.76,88.5047 1320.66,91.551 1323.57,95.5664 1326.47,100.542 1329.37,106.465 1332.27,113.323 1335.18,121.1 1338.72,131.815
  1342.26,143.837 1345.81,157.125 1349.35,171.635 1352.89,187.319 1356.44,204.125 1359.98,221.999 1363.52,240.883 1370.02,277.901 1376.51,317.719 1379.75,338.552
  1383,359.931 1386.25,381.804 1389.49,404.118 1401.49,489.514 1413.48,577.592 1425.63,667.02 1437.77,754.368 1444.58,801.664 1451.39,847.403 1458.2,891.341
  1465,933.276 1471.17,969.412 1477.34,1003.68 1483.51,1036.02 1489.68,1066.4 1496.74,1098.75 1503.8,1128.51 1510.86,1155.72 1517.93,1180.47 1524.46,1201.27
  1531,1220.11 1537.54,1237.11 1544.08,1252.37 1550.53,1265.82 1556.98,1277.8 1563.42,1288.43 1569.87,1297.81 1576.13,1305.82 1582.39,1312.87 1588.65,1319.03
  1594.91,1324.4 1607.74,1333.27 1620.57,1339.79 1634.63,1344.88 1648.69,1348.37 1669.12,1351.51 1689.54,1353.2 1693.73,1353.44 1697.92,1353.64
  "/>
<polyline clip-path="url(#clip812)" style="stroke:#ff0000; stroke-linecap:round; stroke-linejoin:round; stroke-width:8; stroke-opacity:1; fill:none" points="
  -1004.69,1354.85 -974.546,1354.85 -695.837,1354.82 -528.345,1354.79 -386.732,1354.75 -232.901,1354.68 -91.0821,1354.58 60.9625,1354.41 237.121,1354.01 393.67,1353.26
  530.949,1351.86 605.785,1350.45 680.621,1348.14 718.261,1346.42 755.901,1344.13 793.541,1341.03 831.181,1336.78 851.989,1333.76 872.797,1330.09 893.605,1325.63
  914.414,1320.17 935.222,1313.44 956.03,1305.1 976.838,1294.69 997.646,1281.63 1007.54,1274.27 1017.44,1266.03 1027.34,1256.81 1037.24,1246.48 1047.14,1234.88
  1057.04,1221.86 1066.94,1207.23 1076.84,1190.79 1086.74,1172.32 1096.64,1151.57 1106.54,1128.26 1116.44,1102.13 1121.39,1087.91 1126.33,1072.88 1131.28,1056.98
  1136.23,1040.2 1141.18,1022.49 1146.13,1003.83 1151.08,984.169 1156.03,963.495 1161.18,940.896 1166.33,917.152 1171.47,892.252 1176.62,866.193 1181.76,838.985
  1186.91,810.647 1192.06,781.216 1197.2,750.744 1202.35,719.304 1207.5,686.986 1212.64,653.906 1217.79,620.202 1228.08,551.597 1238.37,482.783 1243.52,448.91
  1248.67,415.764 1253.81,383.647 1258.96,352.874 1264.11,323.767 1269.25,296.651 1274.4,271.845 1279.55,249.655 1282.12,239.631 1284.69,230.366 1287.27,221.892
  1289.84,214.237 1292.41,207.427 1294.99,201.488 1297.56,196.439 1300.13,192.298 1302.7,189.082 1305.28,186.8 1307.85,185.463 1310.42,185.073 1313,185.634
  1315.57,187.142 1318.14,189.593 1320.72,192.977 1325.05,200.748 1329.38,211.049 1333.71,223.778 1338.05,238.81 1342.38,256 1346.71,275.188 1351.04,296.2
  1355.37,318.854 1359.71,342.958 1364.04,368.319 1368.37,394.745 1372.7,422.044 1381.37,478.525 1390.03,536.368 1398.7,594.347 1407.36,651.428 1416.03,706.781
  1424.69,759.778 1429.02,785.246 1433.35,809.971 1437.69,833.922 1442.02,857.076 1446.35,879.419 1450.68,900.942 1455.02,921.645 1459.35,941.529 1464.64,964.707
  1469.93,986.699 1475.21,1007.53 1480.5,1027.24 1485.79,1045.87 1491.08,1063.45 1496.37,1080.03 1501.66,1095.65 1506.95,1110.37 1512.24,1124.21 1517.53,1137.24
  1522.82,1149.49 1533.39,1171.82 1543.97,1191.54 1554.55,1208.95 1565.13,1224.32 1575.71,1237.89 1586.29,1249.89 1596.86,1260.5 1607.44,1269.89 1618.02,1278.22
  1628.6,1285.61 1647.98,1297.11 1667.36,1306.42 1686.74,1314 1706.12,1320.21 1725.5,1325.32 1744.88,1329.56 1764.26,1333.08 1783.64,1336.03 1819.44,1340.3
  1855.24,1343.45 1891.04,1345.81 1926.84,1347.6 1999.37,1350.07 2071.89,1351.58 2234.46,1353.32 2381.77,1354 2550.42,1354.39 2706.59,1354.58 2860.55,1354.69
  3010.03,1354.75 3163.26,1354.79 3331.15,1354.82 3575.04,1354.85 3625.07,1354.85
  "/>
<path clip-path="url(#clip810)" d="
M1593.62 364.261 L2283.25 364.261 L2283.25 92.1006 L1593.62 92.1006  Z
  " fill="#ffffff" fill-rule="evenodd" fill-opacity="1"/>
<polyline clip-path="url(#clip810)" style="stroke:#000000; stroke-linecap:round; stroke-linejoin:round; stroke-width:4; stroke-opacity:1; fill:none" points="
  1593.62,364.261 2283.25,364.261 2283.25,92.1006 1593.62,92.1006 1593.62,364.261
  "/>
<polyline clip-path="url(#clip810)" style="stroke:#009af9; stroke-linecap:round; stroke-linejoin:round; stroke-width:14; stroke-opacity:1; fill:none" points="
  1616.79,182.821 1755.8,182.821
  "/>
<path clip-path="url(#clip810)" d="M1778.97 152.581 L1789.98 152.581 L1816.8 203.176 L1816.8 152.581 L1824.74 152.581 L1824.74 213.061 L1813.72 213.061 L1786.91 162.465 L1786.91 213.061 L1778.97 213.061 L1778.97 152.581 Z" fill="#000000" fill-rule="evenodd" fill-opacity="1" /><path clip-path="url(#clip810)" d="M1858.28 172.916 Q1852.29 172.916 1848.8 177.615 Q1845.32 182.274 1845.32 190.416 Q1845.32 198.558 1848.76 203.257 Q1852.25 207.916 1858.28 207.916 Q1864.24 207.916 1867.72 203.217 Q1871.21 198.518 1871.21 190.416 Q1871.21 182.355 1867.72 177.656 Q1864.24 172.916 1858.28 172.916 M1858.28 166.597 Q1868 166.597 1873.55 172.916 Q1879.1 179.236 1879.1 190.416 Q1879.1 201.556 1873.55 207.916 Q1868 214.235 1858.28 214.235 Q1848.52 214.235 1842.97 207.916 Q1837.46 201.556 1837.46 190.416 Q1837.46 179.236 1842.97 172.916 Q1848.52 166.597 1858.28 166.597 Z" fill="#000000" fill-rule="evenodd" fill-opacity="1" /><path clip-path="url(#clip810)" d="M1917.75 174.658 Q1916.49 173.929 1915 173.605 Q1913.54 173.24 1911.75 173.24 Q1905.44 173.24 1902.03 177.372 Q1898.67 181.464 1898.67 189.16 L1898.67 213.061 L1891.18 213.061 L1891.18 167.69 L1898.67 167.69 L1898.67 174.739 Q1901.02 170.607 1904.79 168.622 Q1908.55 166.597 1913.94 166.597 Q1914.71 166.597 1915.64 166.718 Q1916.58 166.799 1917.71 167.002 L1917.75 174.658 Z" fill="#000000" fill-rule="evenodd" fill-opacity="1" /><path clip-path="url(#clip810)" d="M1959.43 176.4 Q1962.23 171.377 1966.12 168.987 Q1970.01 166.597 1975.27 166.597 Q1982.36 166.597 1986.21 171.579 Q1990.06 176.521 1990.06 185.677 L1990.06 213.061 L1982.56 213.061 L1982.56 185.92 Q1982.56 179.398 1980.26 176.238 Q1977.95 173.078 1973.21 173.078 Q1967.41 173.078 1964.05 176.927 Q1960.69 180.775 1960.69 187.418 L1960.69 213.061 L1953.2 213.061 L1953.2 185.92 Q1953.2 179.357 1950.89 176.238 Q1948.58 173.078 1943.76 173.078 Q1938.05 173.078 1934.68 176.967 Q1931.32 180.815 1931.32 187.418 L1931.32 213.061 L1923.83 213.061 L1923.83 167.69 L1931.32 167.69 L1931.32 174.739 Q1933.87 170.567 1937.44 168.582 Q1941 166.597 1945.9 166.597 Q1950.85 166.597 1954.29 169.108 Q1957.77 171.62 1959.43 176.4 Z" fill="#000000" fill-rule="evenodd" fill-opacity="1" /><path clip-path="url(#clip810)" d="M2025.54 190.254 Q2016.51 190.254 2013.03 192.32 Q2009.54 194.386 2009.54 199.369 Q2009.54 203.338 2012.14 205.688 Q2014.77 207.997 2019.27 207.997 Q2025.46 207.997 2029.19 203.622 Q2032.96 199.207 2032.96 191.915 L2032.96 190.254 L2025.54 190.254 M2040.41 187.175 L2040.41 213.061 L2032.96 213.061 L2032.96 206.174 Q2030.41 210.306 2026.6 212.291 Q2022.79 214.235 2017.28 214.235 Q2010.31 214.235 2006.18 210.347 Q2002.09 206.417 2002.09 199.855 Q2002.09 192.198 2007.19 188.31 Q2012.34 184.421 2022.51 184.421 L2032.96 184.421 L2032.96 183.692 Q2032.96 178.547 2029.55 175.752 Q2026.19 172.916 2020.08 172.916 Q2016.19 172.916 2012.5 173.848 Q2008.81 174.78 2005.41 176.643 L2005.41 169.756 Q2009.5 168.177 2013.35 167.407 Q2017.2 166.597 2020.85 166.597 Q2030.69 166.597 2035.55 171.701 Q2040.41 176.805 2040.41 187.175 Z" fill="#000000" fill-rule="evenodd" fill-opacity="1" /><path clip-path="url(#clip810)" d="M2055.76 150.029 L2063.22 150.029 L2063.22 213.061 L2055.76 213.061 L2055.76 150.029 Z" fill="#000000" fill-rule="evenodd" fill-opacity="1" /><polyline clip-path="url(#clip810)" style="stroke:#ff0000; stroke-linecap:round; stroke-linejoin:round; stroke-width:14; stroke-opacity:1; fill:none" points="
  1616.79,273.541 1755.8,273.541
  "/>
<path clip-path="url(#clip810)" d="M1817.9 228.332 L1817.9 236.312 Q1813.24 234.084 1809.1 232.99 Q1804.97 231.896 1801.12 231.896 Q1794.44 231.896 1790.79 234.489 Q1787.19 237.082 1787.19 241.862 Q1787.19 245.872 1789.58 247.938 Q1792.01 249.963 1798.73 251.219 L1803.68 252.232 Q1812.83 253.974 1817.17 258.389 Q1821.54 262.764 1821.54 270.137 Q1821.54 278.927 1815.63 283.464 Q1809.75 288.001 1798.37 288.001 Q1794.08 288.001 1789.21 287.029 Q1784.39 286.057 1779.21 284.153 L1779.21 275.727 Q1784.19 278.522 1788.97 279.94 Q1793.75 281.358 1798.37 281.358 Q1805.38 281.358 1809.19 278.603 Q1812.99 275.849 1812.99 270.745 Q1812.99 266.289 1810.24 263.777 Q1807.52 261.266 1801.29 260.01 L1796.3 259.038 Q1787.15 257.215 1783.06 253.326 Q1778.97 249.437 1778.97 242.51 Q1778.97 234.489 1784.6 229.871 Q1790.27 225.253 1800.19 225.253 Q1804.45 225.253 1808.86 226.023 Q1813.28 226.792 1817.9 228.332 Z" fill="#000000" fill-rule="evenodd" fill-opacity="1" /><path clip-path="url(#clip810)" d="M1841.35 228.575 L1841.35 241.457 L1856.7 241.457 L1856.7 247.249 L1841.35 247.249 L1841.35 271.879 Q1841.35 277.429 1842.85 279.008 Q1844.39 280.588 1849.05 280.588 L1856.7 280.588 L1856.7 286.827 L1849.05 286.827 Q1840.42 286.827 1837.14 283.626 Q1833.86 280.386 1833.86 271.879 L1833.86 247.249 L1828.39 247.249 L1828.39 241.457 L1833.86 241.457 L1833.86 228.575 L1841.35 228.575 Z" fill="#000000" fill-rule="evenodd" fill-opacity="1" /><path clip-path="url(#clip810)" d="M1865.74 268.922 L1865.74 241.457 L1873.19 241.457 L1873.19 268.638 Q1873.19 275.079 1875.7 278.32 Q1878.21 281.52 1883.24 281.52 Q1889.27 281.52 1892.76 277.672 Q1896.28 273.823 1896.28 267.18 L1896.28 241.457 L1903.73 241.457 L1903.73 286.827 L1896.28 286.827 L1896.28 279.859 Q1893.57 283.991 1889.96 286.017 Q1886.4 288.001 1881.66 288.001 Q1873.84 288.001 1869.79 283.14 Q1865.74 278.279 1865.74 268.922 M1884.49 240.363 L1884.49 240.363 Z" fill="#000000" fill-rule="evenodd" fill-opacity="1" /><path clip-path="url(#clip810)" d="M1948.94 248.343 L1948.94 223.795 L1956.4 223.795 L1956.4 286.827 L1948.94 286.827 L1948.94 280.021 Q1946.59 284.072 1942.99 286.057 Q1939.42 288.001 1934.4 288.001 Q1926.18 288.001 1920.99 281.439 Q1915.85 274.877 1915.85 264.182 Q1915.85 253.488 1920.99 246.925 Q1926.18 240.363 1934.4 240.363 Q1939.42 240.363 1942.99 242.348 Q1946.59 244.292 1948.94 248.343 M1923.54 264.182 Q1923.54 272.405 1926.91 277.105 Q1930.31 281.763 1936.22 281.763 Q1942.14 281.763 1945.54 277.105 Q1948.94 272.405 1948.94 264.182 Q1948.94 255.959 1945.54 251.3 Q1942.14 246.601 1936.22 246.601 Q1930.31 246.601 1926.91 251.3 Q1923.54 255.959 1923.54 264.182 Z" fill="#000000" fill-rule="evenodd" fill-opacity="1" /><path clip-path="url(#clip810)" d="M2010.56 262.278 L2010.56 265.924 L1976.29 265.924 Q1976.77 273.621 1980.9 277.672 Q1985.08 281.682 1992.49 281.682 Q1996.78 281.682 2000.79 280.629 Q2004.84 279.576 2008.81 277.469 L2008.81 284.518 Q2004.8 286.219 2000.59 287.11 Q1996.38 288.001 1992.04 288.001 Q1981.19 288.001 1974.83 281.682 Q1968.51 275.363 1968.51 264.587 Q1968.51 253.447 1974.5 246.925 Q1980.54 240.363 1990.75 240.363 Q1999.9 240.363 2005.21 246.277 Q2010.56 252.151 2010.56 262.278 M2003.1 260.091 Q2003.02 253.974 1999.66 250.328 Q1996.34 246.682 1990.83 246.682 Q1984.59 246.682 1980.82 250.207 Q1977.1 253.731 1976.53 260.131 L2003.1 260.091 Z" fill="#000000" fill-rule="evenodd" fill-opacity="1" /><path clip-path="url(#clip810)" d="M2060.5 259.443 L2060.5 286.827 L2053.05 286.827 L2053.05 259.686 Q2053.05 253.245 2050.54 250.045 Q2048.03 246.844 2043 246.844 Q2036.97 246.844 2033.48 250.693 Q2030 254.541 2030 261.184 L2030 286.827 L2022.51 286.827 L2022.51 241.457 L2030 241.457 L2030 248.505 Q2032.67 244.414 2036.28 242.388 Q2039.93 240.363 2044.66 240.363 Q2052.48 240.363 2056.49 245.224 Q2060.5 250.045 2060.5 259.443 Z" fill="#000000" fill-rule="evenodd" fill-opacity="1" /><path clip-path="url(#clip810)" d="M2082.74 228.575 L2082.74 241.457 L2098.1 241.457 L2098.1 247.249 L2082.74 247.249 L2082.74 271.879 Q2082.74 277.429 2084.24 279.008 Q2085.78 280.588 2090.44 280.588 L2098.1 280.588 L2098.1 286.827 L2090.44 286.827 Q2081.81 286.827 2078.53 283.626 Q2075.25 280.386 2075.25 271.879 L2075.25 247.249 L2069.78 247.249 L2069.78 241.457 L2075.25 241.457 L2075.25 228.575 L2082.74 228.575 Z" fill="#000000" fill-rule="evenodd" fill-opacity="1" /><path clip-path="url(#clip810)" d="M2114.95 226.347 L2114.95 248.829 L2108.06 248.829 L2108.06 226.347 L2114.95 226.347 Z" fill="#000000" fill-rule="evenodd" fill-opacity="1" /><path clip-path="url(#clip810)" d="M2159.63 242.793 L2159.63 249.842 Q2156.47 248.222 2153.07 247.411 Q2149.66 246.601 2146.02 246.601 Q2140.47 246.601 2137.67 248.303 Q2134.92 250.004 2134.92 253.407 Q2134.92 255.999 2136.9 257.498 Q2138.89 258.956 2144.88 260.293 L2147.44 260.86 Q2155.38 262.562 2158.7 265.681 Q2162.06 268.76 2162.06 274.309 Q2162.06 280.629 2157.04 284.315 Q2152.05 288.001 2143.3 288.001 Q2139.66 288.001 2135.69 287.272 Q2131.76 286.584 2127.38 285.166 L2127.38 277.469 Q2131.52 279.616 2135.53 280.71 Q2139.54 281.763 2143.47 281.763 Q2148.73 281.763 2151.57 279.981 Q2154.4 278.158 2154.4 274.877 Q2154.4 271.838 2152.34 270.218 Q2150.31 268.598 2143.39 267.099 L2140.79 266.491 Q2133.87 265.033 2130.79 262.035 Q2127.71 258.997 2127.71 253.731 Q2127.71 247.33 2132.25 243.847 Q2136.78 240.363 2145.13 240.363 Q2149.26 240.363 2152.91 240.97 Q2156.55 241.578 2159.63 242.793 Z" fill="#000000" fill-rule="evenodd" fill-opacity="1" /><path clip-path="url(#clip810)" d="M2218.26 251.576 Q2218.26 252.724 2217.73 253.011 Q2217.2 253.256 2215.72 253.256 L2207.85 253.256 L2201.62 278.014 Q2201.13 280.186 2201.13 282.031 Q2201.13 284.08 2201.75 284.982 Q2202.4 285.884 2203.75 285.884 Q2206.42 285.884 2209.29 283.466 Q2212.2 281.047 2214.66 275.145 Q2214.99 274.366 2215.15 274.202 Q2215.35 273.997 2215.89 273.997 Q2216.91 273.997 2216.91 274.817 Q2216.91 275.104 2216.34 276.415 Q2215.81 277.727 2214.62 279.654 Q2213.47 281.58 2211.95 283.384 Q2210.48 285.187 2208.22 286.499 Q2205.97 287.769 2203.55 287.769 Q2200.15 287.769 2197.97 285.597 Q2195.84 283.425 2195.84 280.022 Q2195.84 278.916 2196.7 275.391 Q2197.57 271.825 2202.24 253.256 L2194.82 253.256 Q2193.79 253.256 2193.38 253.216 Q2193.02 253.175 2192.73 252.97 Q2192.48 252.724 2192.48 252.232 Q2192.48 251.453 2192.81 251.125 Q2193.14 250.756 2193.55 250.715 Q2194 250.633 2195.02 250.633 L2202.89 250.633 L2206.17 237.312 Q2206.5 236 2207.32 235.262 Q2208.18 234.483 2208.67 234.401 Q2209.16 234.278 2209.53 234.278 Q2210.64 234.278 2211.3 234.893 Q2211.95 235.467 2211.95 236.533 Q2211.95 237.107 2208.51 250.633 L2215.89 250.633 Q2216.83 250.633 2217.2 250.674 Q2217.61 250.715 2217.94 250.92 Q2218.26 251.125 2218.26 251.576 Z" fill="#000000" fill-rule="evenodd" fill-opacity="1" /><path clip-path="url(#clip810)" d="M2226.97 303.103 Q2226.97 301.352 2227.98 300.52 Q2228.98 299.688 2230.27 299.688 Q2231.62 299.688 2232.57 300.578 Q2233.54 301.438 2233.54 302.959 Q2233.54 304.595 2232.4 305.513 Q2231.28 306.431 2229.67 306.201 Q2231.08 308.554 2233.66 309.616 Q2236.27 310.677 2238.68 310.677 Q2241.21 310.677 2243.24 308.497 Q2245.31 306.316 2245.31 300.979 Q2245.31 296.446 2243.53 293.835 Q2241.78 291.224 2238.31 291.224 L2235.72 291.224 Q2234.84 291.224 2234.58 291.138 Q2234.32 291.052 2234.32 290.564 Q2234.32 289.99 2235.21 289.875 Q2236.1 289.875 2237.5 289.703 Q2240.92 289.588 2242.73 286.633 Q2244.36 283.879 2244.36 279.948 Q2244.36 276.361 2242.64 274.869 Q2240.95 273.348 2238.74 273.348 Q2236.67 273.348 2234.4 274.209 Q2232.14 275.07 2230.9 276.992 Q2234.55 276.992 2234.55 279.948 Q2234.55 281.239 2233.72 282.1 Q2232.91 282.932 2231.56 282.932 Q2230.27 282.932 2229.41 282.128 Q2228.55 281.296 2228.55 279.89 Q2228.55 276.533 2231.54 274.209 Q2234.55 271.885 2238.97 271.885 Q2243.33 271.885 2246.54 274.181 Q2249.78 276.476 2249.78 280.005 Q2249.78 283.477 2247.49 286.317 Q2245.19 289.158 2241.55 290.334 Q2246.03 291.224 2248.69 294.265 Q2251.36 297.278 2251.36 300.979 Q2251.36 305.57 2247.75 308.956 Q2244.13 312.313 2238.85 312.313 Q2233.97 312.313 2230.47 309.673 Q2226.97 307.033 2226.97 303.103 Z" fill="#000000" fill-rule="evenodd" fill-opacity="1" /></svg>
